<svg width="278" height="59" fill="none" xmlns="http://www.w3.org/2000/svg">
    <path fill-rule="evenodd" clip-rule="evenodd"
        d="M50.181 31.892c-3.648 13.513-17.642 21.532-31.258 17.912C5.308 46.183-2.772 32.292.876 18.78 4.524 5.268 18.518-2.75 32.134.87 45.75 4.49 53.83 18.38 50.181 31.891Zm-7.008-20.499c-.367.599-.741 1.208-2.147 1.22-3.23.028-3.573 2.533-2.166 3.576.611.454 1.237.456 2.003.46.997.004 2.232.009 3.977 1.016.932.672 1.939.649 2.926.51a23.36 23.36 0 0 0-4.086-7.46c-.213.197-.36.437-.507.678Zm5.743 13.79c-2.84-2.2-6.882-3.568-10.126-2.724-3.27.852-8.202 4.168-4.778 7.181 1.457 1.283 2.739 2.153 3.765 2.849 2.114 1.433 3.14 2.129 2.359 4.18-.79 2.075-1.35 4.36-.744 7.346 4.133-3.014 7.303-7.383 8.73-12.67.557-2.058.808-4.127.794-6.162ZM16.713 3.846C11.714 5.872 7.465 9.59 4.857 14.479c1.114 1.196 2.184 2.503 2.23 4.246.057 2.348 1.671 3.958 3.038 5.322 1.306 1.302 2.385 2.38 1.665 3.659-1.32 2.28-.325 3.538.84 5.012 1.448 1.829 3.157 3.99 1.028 8.846l-.066.131c-.613 1.215-1.056 2.096-1.107 2.907a23.28 23.28 0 0 0 3.78 2.05c.295-1.767 1.696-4.435 4.099-7.376 1.5-1.837 2.955-2.403 4.15-2.868 1.46-.568 2.533-.985 2.828-3.381.08-1.35-.72-1.866-1.684-2.488-.875-.563-1.884-1.214-2.492-2.652-1.28-3.024-3.621-6.245-6.719-5.286-3.098.96-8.249-.494-7.18-4.704.568-2.23 2.295-2.157 4.285-2.072 1.767.075 3.74.16 5.293-1.352 1.474-1.436 3.897-2.191 6.117-2.883 2.75-.857 5.189-1.617 5.123-3.453-.118-3.319-2.973-4.01-8.887-3.638-1.803.113-3.328-.168-4.485-.653Zm189.501 40.782c0 1.691.265 2.943.796 3.75.53.808 1.478 1.212 2.841 1.212v1.241h-11.82v-4.287c-.57 1.497-1.372 2.677-2.415 3.526-1.269 1.034-2.927 1.551-4.972 1.551-2.235 0-4.234-.545-5.995-1.636-1.761-1.09-3.135-2.772-4.12-5.047-.985-2.274-1.478-5.216-1.478-8.827 0-3.421.55-6.25 1.649-8.488 1.099-2.235 2.605-3.919 4.518-5.047 1.911-1.128 4.081-1.691 6.506-1.691 1.666 0 3.133.272 4.404.818a5.995 5.995 0 0 1 1.903 1.299V16.44c0-1.693-.255-2.942-.767-3.751-.512-.808-1.468-1.213-2.869-1.213v-1.184c1.019.094 7.849-1.524 10.697-2.198h.001c.539-.127.935-.221 1.121-.263v36.796Zm-9.774 3.045c.888-.88 1.416-2.03 1.591-3.447h.002V24.431a4.233 4.233 0 0 0-1.563-1.32 5.852 5.852 0 0 0-2.586-.591c-1.932 0-3.467 1.119-4.603 3.355-1.137 2.238-1.686 5.688-1.649 10.35 0 3.196.218 5.743.653 7.641.436 1.9 1.061 3.264 1.876 4.09.814.828 1.751 1.24 2.812 1.24 1.288 0 2.444-.508 3.467-1.523Zm-22.556-17.258v15.17c0 1.58.275 2.652.826 3.215.548.565 1.485.847 2.812.847v1.083h-14.888v-1.083c1.135 0 1.931-.283 2.386-.847.454-.563.681-1.634.681-3.214v-17.54c0-.938-.094-1.756-.284-2.452-.189-.696-.53-1.242-1.022-1.636-.493-.395-1.231-.592-2.216-.592-1.592 0-2.927.62-4.006 1.861-1.081 1.241-1.62 2.802-1.62 4.68v15.68c0 1.578.236 2.651.71 3.215.473.564 1.26.846 2.359.846v1.083h-14.884v-1.083c1.325 0 2.258-.283 2.808-.846.549-.564.824-1.635.824-3.215v-16.06c0-1.693-.255-2.942-.767-3.75-.511-.808-1.469-1.214-2.87-1.214V23.38c1.018.094 7.83-1.519 10.685-2.195.545-.129.946-.224 1.135-.266v5.21c.946-1.917 2.234-3.27 3.863-4.06 1.628-.79 3.446-1.184 5.455-1.184 1.59 0 2.887.196 3.892.591 1.004.395 1.791.931 2.359 1.608.606.714 1.052 1.635 1.336 2.763.284 1.128.426 2.65.426 4.569Zm46.27 2.989h15.928c0-4.436-.948-7.633-2.842-9.588-1.895-1.954-4.509-2.932-7.842-2.932-2.691 0-5.086.573-7.188 1.72-2.102 1.146-3.751 2.886-4.944 5.216-1.194 2.332-1.79 5.246-1.79 8.742 0 3.421.559 6.24 1.676 8.46 1.117 2.218 2.66 3.872 4.632 4.962 1.97 1.09 4.241 1.636 6.819 1.636 2.122 0 3.94-.434 5.455-1.298 1.515-.864 2.766-1.975 3.751-3.328.985-1.353 1.705-2.743 2.159-4.173l-1.023-.339c-1.175 1.88-2.435 3.101-3.779 3.666-1.345.563-2.585.846-3.722.846-1.175 0-2.33-.366-3.467-1.1-1.136-.733-2.075-1.907-2.813-3.524-.739-1.615-1.109-3.722-1.109-6.316 0-.527.01-1.035.029-1.523.017-.389.043-.76.07-1.127Zm-.124-1.072c.21-3.593.756-6.195 1.647-7.783.928-1.654 2.054-2.48 3.381-2.48.947 0 1.706.47 2.273 1.409.568.94.985 2.19 1.251 3.75.264 1.56.378 3.262.341 5.104h-8.893Zm-80.901 11.829c.024 1.878.953 2.846 2.161 2.846.991 0 2.129-.54 2.768-2.305l.531.058c-.421 1.768-1.157 3.18-2.144 4.23-1.064 1.131-2.419 1.839-3.977 2.117-.548.078-1.121.12-1.722.12-.162 0-.314-.005-.467-.01l-.077-.004c-2.846-.238-4.521-2.056-4.99-4.553h-.148a4.42 4.42 0 0 1-.024.039l-.021.032-.025.037-.048.072c-.926 1.448-2.05 2.538-3.377 3.26-1.384.75-3.003 1.127-4.859 1.127-2.539 0-4.375-.657-5.512-1.974-1.136-1.316-1.704-2.913-1.704-4.794 0-1.615.37-2.932 1.108-3.947.739-1.015 1.695-1.851 2.87-2.51a21.185 21.185 0 0 1 3.722-1.636 136.58 136.58 0 0 0 3.75-1.298c1.194-.432 2.16-.931 2.898-1.494.63-.481.985-1.074 1.077-1.774.008.198.014.397.014.603v-.671l-.001.012-.001.002-.002.01-.003.011c-.003.01-.006.022-.007.033-.146-3.897-1.761-6.532-6.179-6.532-3.595 0-6.139 1.702-7.354 5.984l-.445-.11c.883-6.316 5.088-10.265 11.612-10.265 7.36 0 10.563 4.663 10.563 11.688l.007 5.97.002 1.856v3.703l.002.034.001.01.001.008v.015Zm-12.043 3.456c.72 0 1.393-.17 2.018-.508.595-.323 1.759-1.702 1.842-1.8l.004-.005-.01-6.768-.007-4.77-.006.01c-.454.737-1.078 1.357-1.881 1.856a71.349 71.349 0 0 0-2.5 1.636 7.516 7.516 0 0 0-2.13 2.228c-.569.901-.853 2.105-.853 3.609 0 1.617.341 2.773 1.023 3.469.681.696 1.515 1.043 2.5 1.043Zm131.476-28.554c-4.73 0-8.066 3.303-8.828 11.389v-9.534c-.19.043-.596.14-1.148.27-2.861.678-9.642 2.285-10.657 2.19v1.185c1.401 0 2.358.406 2.869 1.213.419.663.664 2.285.739 3.63h-.003c0 .041.003.08.003.121v16.06c0 1.58-.275 2.651-.825 3.215-.549.563-1.487.846-2.812.846v1.185h17.161v-1.185c-1.781 0-3.117-.32-4.006-.958-.891-.64-1.335-1.861-1.335-3.666V34.6c.382-6.11 2.749-7.793 6.182-7.793 1.447 0 2.373.177 3.01.52h.287v-8.262h-.637v-.003ZM120.55 10.901v1.128c-.833.302-1.704.95-2.614 1.946-.909.997-1.821 2.597-2.618 4.766l-11.991 32.202c-.36 0-13.921-35.868-13.921-35.868-.379-1.164-.844-1.954-1.392-2.368-.55-.413-1.128-.638-1.733-.677v-1.128h16.309v1.128c-1.137.039-2.037.169-2.7.395-.663.225-1.042.657-1.136 1.297-.096.64.084 1.655.539 3.045l7.461 20.659 5.407-14.117c.183-.537.362-1.05.534-1.539.756-2.156 1.351-3.854 1.321-5.172-.039-1.617-.475-2.773-1.308-3.47-.833-.694-2.027-1.06-3.58-1.1v-1.127h11.422ZM86.544 37.67 78.27 16.765a9.417 9.417 0 0 1-.483-2.226c-.057-.696.066-1.26.37-1.693.301-.431.832-.705 1.59-.817v-1.128H64.292v1.128c.567.039 1.184.301 1.846.79.663.489 1.24 1.429 1.734 2.82 0 0 14.212 35.304 14.718 35.304l9.805-23.386-.716-1.88-5.134 11.992ZM55.401 25.336c0-7.92-3.108-15.365-8.749-20.964l-1.37 1.358c5.276 5.237 8.183 12.2 8.183 19.606 0 7.406-2.906 14.368-8.183 19.605-10.891 10.81-28.615 10.81-39.507 0l-1.369 1.36c5.09 5.05 11.574 7.893 18.232 8.53-.04.981-.243 1.661-.61 2.038-.413.425-1.114.636-2.111.636v.814h11.19v-.814c-.826 0-1.417-.212-1.772-.636-.323-.382-.497-1.079-.528-2.085 6.523-.708 12.855-3.532 17.845-8.485 5.642-5.6 8.75-13.044 8.75-20.963Zm211.604-14.883c0 2.875 2.277 5.06 5.106 5.06 2.852 0 5.106-2.208 5.106-5.083 0-2.829-2.208-5.083-5.106-5.083a5.08 5.08 0 0 0-5.106 5.106Zm9.292-.023c0 2.507-1.817 4.255-4.186 4.255-2.346 0-4.186-1.702-4.186-4.232 0-2.507 1.748-4.278 4.186-4.278 2.438 0 4.186 1.748 4.186 4.255Zm-5.934-2.576v5.037h1.104v-1.955h.529l1.219 1.955h1.15l-1.334-2.139c.598-.184 1.035-.598 1.035-1.357v-.023c0-1.035-.759-1.518-1.932-1.518h-1.771Zm1.748 2.323h-.644V8.706h.644c.552 0 .874.184.874.713v.023c0 .483-.299.736-.874.736Z"
        fill="#fff" style="fill:#fff;fill-opacity:1" />
</svg>